<svg width="21" height="20" viewBox="0 0 21 20" fill="none" xmlns="http://www.w3.org/2000/svg">
<path d="M11.1446 3.41482C11.2861 3.4155 11.3568 3.41583 11.4005 3.45972C11.4442 3.50361 11.4442 3.57427 11.4442 3.71559V5.4873C11.4443 6.31553 12.1159 6.98714 12.9442 6.9873C13.7724 6.9872 14.444 6.31557 14.4442 5.4873V3.93275C14.4442 3.76218 14.4442 3.67689 14.5034 3.63187C14.5626 3.58685 14.6408 3.60856 14.7972 3.65198C15.0547 3.72348 15.2841 3.81647 15.4969 3.9375C16.1221 4.29322 16.6402 4.81131 16.9959 5.43652C17.5189 6.35625 17.5184 7.58752 17.5184 10.0488C17.5184 12.5103 17.5192 13.7414 16.9959 14.6611C16.6402 15.2863 16.122 15.8035 15.4969 16.1592C14.5771 16.6824 13.3462 16.6826 10.8846 16.6826H9.18243C6.72085 16.6826 5.48988 16.6824 4.57013 16.1592C3.94496 15.8035 3.42683 15.2863 3.07111 14.6611C2.54786 13.7414 2.54767 12.5103 2.54767 10.0488C2.54767 7.58731 2.54794 6.35627 3.07111 5.43652C3.42683 4.81125 3.94486 4.29323 4.57013 3.9375C4.78267 3.81662 5.01176 3.7236 5.26884 3.65209C5.4252 3.6086 5.50338 3.58685 5.56263 3.63187C5.62189 3.67689 5.62189 3.76219 5.62189 3.93278V5.4873L5.6297 5.64062C5.70659 6.39682 6.34544 6.98714 7.12189 6.9873C7.89848 6.9873 8.53718 6.39692 8.61407 5.64062L8.62189 5.4873V3.71559C8.62189 3.57427 8.62189 3.50362 8.66557 3.45973C8.70925 3.41583 8.77998 3.4155 8.92145 3.41482C9.00691 3.41441 9.09392 3.41406 9.18243 3.41406H10.8846C10.9728 3.41406 11.0595 3.41441 11.1446 3.41482Z" fill="#D9E9FF" fill-opacity="0.71"/>
<path d="M7.12219 2.16992L7.12219 5.48709" stroke="#746F6F" stroke-linecap="round"/>
<path d="M12.9443 2.16992L12.9443 5.48709" stroke="#746F6F" stroke-linecap="round"/>
<circle cx="5.50255" cy="8.24687" r="0.45" fill="#746F6F"/>
<circle cx="8.20256" cy="8.24687" r="0.45" fill="#746F6F"/>
<circle cx="10.9026" cy="8.24687" r="0.45" fill="#746F6F"/>
<circle cx="13.6025" cy="8.24687" r="0.45" fill="#746F6F"/>
<circle cx="5.50255" cy="10.9461" r="0.45" fill="#746F6F"/>
<circle cx="8.20256" cy="10.9461" r="0.45" fill="#746F6F"/>
<circle cx="10.9026" cy="10.9461" r="0.45" fill="#746F6F"/>
<circle cx="13.6025" cy="10.9461" r="0.45" fill="#746F6F"/>
<circle cx="5.50255" cy="13.6473" r="0.45" fill="#746F6F"/>
<circle cx="8.20256" cy="13.6473" r="0.45" fill="#746F6F"/>
<circle cx="10.9026" cy="13.6473" r="0.45" fill="#746F6F"/>
<circle cx="13.6025" cy="13.6473" r="0.45" fill="#746F6F"/>
</svg>
