<svg width="311" height="268" viewBox="0 0 311 268" fill="none" xmlns="http://www.w3.org/2000/svg">
<g clip-path="url(#clip0_187_107)">
<path d="M-13.1738 117.668C-41.2883 140.896 -52.3337 166.749 -56.1555 189.211C-61.6343 221.443 -53.5919 251.81 -18.51 263.183C-11.8659 265.333 -3.82511 266.753 6.06158 264.59C21.4869 261.214 36.2828 250.407 47.4621 240.354C75.3205 215.313 94.068 188.836 110.647 162.972C126.092 138.883 140.043 114.914 152.501 91.0637C162.241 72.4536 171.109 53.5705 171.372 37.091C171.405 34.7344 171.06 32.224 168.032 31.6615C166.009 31.3742 163.421 31.7571 160.805 32.7312C149.865 36.5784 143.059 45.4527 139.471 52.558C121.54 88.3308 131.602 118.22 151.827 140.863C158.331 148.131 166.816 155.122 182.331 154.869C203.166 154.547 230.541 140.581 247.299 125.338C264.058 110.096 272.374 93.9625 279.142 78.6297C296.159 39.9523 306.19 2.53481 309.02 -32.8164" stroke="#B1B1B1" stroke-width="3" stroke-miterlimit="10"/>
</g>
<defs>
<clipPath id="clip0_187_107">
<rect width="311" height="267.498" fill="white"/>
</clipPath>
</defs>
</svg>
